<svg height="32" viewBox="0 0 358 32" width="358" xmlns="http://www.w3.org/2000/svg"><g fill="#1a1919" fill-rule="evenodd"><path d="m5.664 7.391.064.032v3.744h.096c.768-2.112 2.655-3.84 5.407-3.84 3.584 0 4.672 1.792 4.672 5.184v6.751c0 2.048.128 4.16.64 5.76h-5.791c.479-1.504.543-3.36.543-5.567v-6.432c0-1.568-.64-2.304-2.336-2.304-1.312 0-2.303.352-3.04 1.024v7.712c0 2.207.064 4.063.544 5.567h-5.791c.512-1.6.64-3.712.64-5.76v-6.239c0-1.696-.608-3.2-1.312-4z"/><path d="m26.143 21.694v-6.271c-.352.512-.8.831-2.08 1.44-1.632.8-2.208 1.663-2.208 3.519 0 1.504.832 2.464 2.176 2.464 1.312 0 1.76-.48 2.112-1.152zm-1.504-14.367c4.48 0 6.144 1.76 6.144 5.408v7.647c0 1.376.544 1.792 1.632 1.792.191 0 .735-.096.927-.256-.095.512-.159.8-.287 1.12-.512 1.44-1.44 2.368-3.328 2.368-2.208 0-3.328-1.536-3.392-3.168h-.064c-.736 2.208-2.176 3.168-4.448 3.168-2.783 0-4.575-1.664-4.575-4.288 0-2.752 2.496-3.935 5.087-4.959 2.464-.992 3.808-1.696 3.808-3.456v-.352c0-1.952-.608-2.944-2.432-2.944-1.152 0-1.568.512-1.824 1.632-.352 1.664-1.024 2.272-2.143 2.272-.993 0-1.889-.672-1.889-1.888 0-2.432 3.329-4.096 6.784-4.096z"/><path d="m43.327 23.134c-.608 1.376-2.08 2.272-4.16 2.272-3.552 0-4.928-1.792-4.928-5.056v-10.207h-1.695v-.128l6.207-6.368.096.033v4.031h4.416l-.448 2.432h-3.968v9.471c0 1.824.768 2.528 2.4 2.528 1.248 0 1.92-.192 2.464-.48-.096.608-.16.96-.384 1.472"/><path d="m49.311 7.583v11.967c0 1.792.704 2.784 2.432 2.784 1.471 0 2.56-.48 3.199-1.312v-8.095c0-1.76-.191-3.264-.735-4.8l5.343-.544v12.255c0 2.688.288 3.904.704 5.184h-5.184v-3.456h-.064c-.735 2.208-2.175 3.808-5.151 3.808-3.776 0-5.152-2.272-5.152-5.664v-6.783c0-1.76-.16-3.264-.736-4.8z"/><path d="m66.911 11.775c.768-3.2 2.239-4.448 4.191-4.448 1.793 0 2.688.928 2.688 2.4 0 1.344-.736 2.4-2.143 2.4-.8 0-1.28-.352-1.632-.704-.416-.352-.672-.736-1.056-.736-.928 0-1.952 1.536-1.952 4.192v4.288c0 2.143.16 4.255.576 5.855h-5.792c.512-1.6.64-3.712.64-5.76v-6.239c0-1.696-.608-3.2-1.312-4l5.664-1.632.064.032v4.352z"/><path d="m77.919 14.303 5.791-.512c-.064-2.752-.48-4.384-2.4-4.384-1.952 0-3.104 1.568-3.391 4.896zm3.455 11.103c-4.415 0-8.095-2.944-8.095-8.575 0-5.728 3.488-9.536 8.191-9.536 4.48 0 6.56 2.848 6.56 8.192h-10.175v.512c0 4.319 2.239 6.015 5.279 6.015 2.752 0 4-1.12 4.8-1.92l.096.288c-.736 2.592-2.816 5.024-6.656 5.024z"/><path d="m98.238 14.303 5.792-.512c-.064-2.752-.48-4.384-2.4-4.384-1.952 0-3.104 1.568-3.392 4.896zm3.456 11.103c-4.416 0-8.095-2.944-8.095-8.575 0-5.728 3.487-9.536 8.191-9.536 4.48 0 6.56 2.848 6.56 8.192h-10.176v.512c0 4.319 2.24 6.015 5.28 6.015 2.752 0 4-1.12 4.799-1.92l.097.288c-.736 2.592-2.816 5.024-6.656 5.024z"/><path d="m117.214 25.406c-4.64 0-7.776-3.264-7.776-8.672 0-6.047 4.096-9.407 8.352-9.407 3.968 0 5.631 1.76 5.631 3.584 0 1.312-.768 2.144-2.111 2.144-1.185 0-1.76-.768-1.984-2.272-.16-1.184-.576-1.408-1.696-1.408-2.24 0-3.616 2.368-3.616 6.24 0 4.479 1.92 6.335 4.928 6.335 1.888 0 3.616-.576 4.607-1.568l.064.256c-.511 2.08-2.431 4.768-6.399 4.768"/><path d="m136.253 16.447c0-5.664-1.343-7.008-3.583-7.008-2.112 0-3.328 1.536-3.328 6.848 0 5.663 1.344 7.007 3.584 7.007 2.112 0 3.327-1.536 3.327-6.847zm5.024-.096c0 5.567-4.031 9.055-8.351 9.055-4.384 0-8.608-3.296-8.608-9.023 0-5.568 4.032-9.056 8.352-9.056 4.383 0 8.607 3.296 8.607 9.024z"/><path d="m147.902 19.262c0 2.048.128 4.16.64 5.76h-5.92c.512-1.6.64-3.712.64-5.76v-13.631c0-1.695-.608-3.199-1.312-3.999l6.016-1.632.064.032c-.096 1.504-.128 4.128-.128 4.959z"/><path d="m161.821 16.447c0-5.664-1.344-7.008-3.584-7.008-2.112 0-3.328 1.536-3.328 6.848 0 5.663 1.344 7.007 3.584 7.007 2.112 0 3.328-1.536 3.328-6.847zm5.024-.096c0 5.567-4.032 9.055-8.352 9.055-4.384 0-8.607-3.296-8.607-9.023 0-5.568 4.031-9.056 8.351-9.056 4.384 0 8.608 3.296 8.608 9.024z"/><path d="m177.501 13.183c0-2.56-1.152-3.872-2.784-3.872-1.76 0-2.72 1.184-2.72 4.128 0 2.56 1.152 3.872 2.816 3.872 1.728 0 2.688-1.185 2.688-4.128zm-2.752 16.639c4.384 0 6.208-1.344 6.208-2.816 0-1.056-.672-1.408-2.048-1.408-1.856 0-6.08.192-6.912.288-.768.096-1.311.864-1.311 1.632 0 1.376 1.215 2.304 4.063 2.304zm4.8-21.055h.096c.832-1.504 2.399-2.24 3.392-2.24 1.535 0 2.495.8 2.495 2.016 0 1.152-.575 2.08-1.727 2.08-.896 0-1.248-.48-1.536-.864-.289-.352-.544-.736-1.185-.736-.287 0-.575.096-.831.256.959 1.152 1.568 2.464 1.568 3.84 0 4.064-3.36 6.207-7.072 6.207-.992 0-2.016-.159-2.944-.448-.512.32-.703.768-.703 1.376 0 .672.48 1.184 1.567 1.184 2.048 0 5.184-.192 7.232-.192 2.848 0 4.543 1.216 4.543 3.968 0 4.192-3.743 6.495-9.695 6.495-5.536 0-7.839-1.535-7.839-3.327 0-1.568 2.015-2.368 4.415-2.752v-.096c-1.696-.32-3.167-1.664-3.167-3.52 0-1.824 1.28-2.975 3.008-3.455v-.128c-2.017-.865-3.488-2.56-3.488-4.928 0-4.064 3.36-6.208 7.071-6.208 1.76 0 3.584.48 4.8 1.472z"/><path d="m187.549 12.639c-.864-2.24-1.536-3.616-2.303-4.96h6.207c-.16 1.344.16 2.464.8 4.416l2.304 6.944h.064l2.368-7.104c.511-1.568.703-2.944.287-4.256h4.352c-.768 1.344-1.6 2.848-2.432 5.152l-3.615 9.855c-2.368 6.432-4.576 9.056-7.68 9.056-1.6 0-2.527-.832-2.527-2.08 0-1.088.735-1.76 1.759-1.76 1.088 0 1.44.864 2.112.864.928 0 2.176-1.952 2.912-4.192z"/><path d="m215.997 10.623c2.399-1.088 2.623-2.464 2.623-4.479 0-1.953-.703-2.688-2.048-2.688-1.504 0-2.207 1.023-2.207 2.752 0 1.535.736 3.039 1.632 4.415zm-1.184 12.191c1.471 0 2.527-.48 3.327-1.024-2.079-2.751-4.255-5.887-5.887-8.351-.896.96-1.44 2.207-1.44 4.448 0 2.367 1.248 4.927 4 4.927zm4.031-.064c-1.312 1.472-2.816 2.688-5.696 2.688-4.991 0-6.911-2.88-6.911-6.399 0-3.296 2.816-5.184 5.471-6.4-1.183-1.792-1.631-3.488-1.631-5.024 0-3.296 2.496-6.079 6.4-6.079 3.743 0 5.311 1.759 5.311 4.319 0 2.624-2.208 4.352-5.247 5.568 1.376 1.952 3.231 4.544 5.055 7.072.512-1.568.608-3.488.8-5.824h2.944c-.928 3.552-1.792 5.28-3.072 6.72 1.12 1.535 2.176 2.975 4.512 5.631h-6.144c-.576-.704-1.184-1.472-1.792-2.272z"/><path d="m236.38 14.303 5.792-.512c-.064-2.752-.48-4.384-2.4-4.384-1.952 0-3.104 1.568-3.392 4.896zm3.456 11.103c-4.416 0-8.095-2.944-8.095-8.575 0-5.728 3.488-9.536 8.191-9.536 4.48 0 6.56 2.848 6.56 8.192h-10.176v.512c0 4.319 2.24 6.015 5.28 6.015 2.752 0 4-1.12 4.8-1.92l.096.288c-.736 2.592-2.816 5.024-6.656 5.024z"/><path d="m253.437 12.511 2.207 5.823h.032l2.176-5.759c.736-1.92 1.024-3.616.48-4.896h4.384c-.8 1.248-1.728 3.168-2.56 5.216l-4.928 12.287h-1.536l-5.024-12.287c-.927-2.24-1.535-3.744-2.463-5.216h6.303c-.095 1.344.16 2.784.929 4.832"/><path d="m273.66 16.447c0-5.664-1.344-7.008-3.584-7.008-2.112 0-3.328 1.536-3.328 6.848 0 5.663 1.344 7.007 3.584 7.007 2.112 0 3.328-1.536 3.328-6.847zm5.024-.096c0 5.567-4.032 9.055-8.352 9.055-4.384 0-8.607-3.296-8.607-9.023 0-5.568 4.031-9.056 8.351-9.056 4.383 0 8.608 3.296 8.608 9.024z"/><path d="m285.308 19.262c0 2.048.128 4.16.64 5.76h-5.92c.513-1.6.64-3.712.64-5.76v-13.631c0-1.695-.607-3.199-1.312-3.999l6.016-1.632.064.032c-.096 1.504-.128 4.128-.128 4.959z"/><path d="m292.508 7.583v11.967c0 1.792.703 2.784 2.431 2.784 1.472 0 2.56-.48 3.2-1.312v-8.095c0-1.76-.192-3.264-.736-4.8l5.344-.544v12.255c0 2.688.288 3.904.704 5.184h-5.184v-3.456h-.064c-.736 2.208-2.176 3.808-5.151 3.808-3.776 0-5.152-2.272-5.152-5.664v-6.783c0-1.76-.16-3.264-.736-4.8z"/><path d="m314.683 23.134c-.608 1.376-2.079 2.272-4.16 2.272-3.551 0-4.927-1.792-4.927-5.056v-10.207h-1.696v-.128l6.207-6.368.097.033v4.031h4.415l-.448 2.432h-3.967v9.471c0 1.824.768 2.528 2.4 2.528 1.247 0 1.919-.192 2.463-.48-.096.608-.16.96-.384 1.472"/><path d="m315.708 3.583c0-1.535 1.151-2.751 2.783-2.751 1.664 0 2.816 1.216 2.816 2.751 0 1.504-1.152 2.752-2.816 2.752-1.632 0-2.783-1.248-2.783-2.752zm5.279 15.679c0 2.048.128 4.16.64 5.76h-5.919c.512-1.6.64-3.712.64-5.76v-6.239c0-1.696-.608-3.2-1.312-4l6.015-1.632.064.032-.128 4.32z"/><path d="m334.906 16.447c0-5.664-1.343-7.008-3.583-7.008-2.112 0-3.328 1.536-3.328 6.848 0 5.663 1.344 7.007 3.584 7.007 2.111 0 3.327-1.536 3.327-6.847zm5.024-.096c0 5.567-4.032 9.055-8.351 9.055-4.384 0-8.608-3.296-8.608-9.023 0-5.568 4.032-9.056 8.352-9.056 4.383 0 8.607 3.296 8.607 9.024z"/><path d="m346.267 7.391.063.032v3.744h.096c.768-2.112 2.656-3.84 5.408-3.84 3.584 0 4.672 1.792 4.672 5.184v6.751c0 2.048.128 4.16.64 5.76h-5.792c.48-1.504.543-3.36.543-5.567v-6.432c0-1.568-.639-2.304-2.335-2.304-1.312 0-2.304.352-3.04 1.024v7.712c0 2.207.064 4.063.544 5.567h-5.792c.512-1.6.64-3.712.64-5.76v-6.239c0-1.696-.607-3.2-1.311-4z"/></g></svg>